<?xml version="1.0" encoding="UTF-8" standalone="no"?><svg xmlns="http://www.w3.org/2000/svg" xmlns:xlink="http://www.w3.org/1999/xlink" contentScriptType="application/ecmascript" contentStyleType="text/css" height="253px" preserveAspectRatio="none" style="width:284px;height:253px;background:#00000000;" version="1.1" viewBox="0 0 284 253" width="284px" zoomAndPan="magnify"><defs><filter height="300%" id="fjjh8si311b4l" width="300%" x="-1" y="-1"><feGaussianBlur result="blurOut" stdDeviation="2.0"/><feColorMatrix in="blurOut" result="blurOut2" type="matrix" values="0 0 0 0 0 0 0 0 0 0 0 0 0 0 0 0 0 0 .4 0"/><feOffset dx="4.0" dy="4.0" in="blurOut2" result="blurOut3"/><feBlend in="SourceGraphic" in2="blurOut3" mode="normal"/></filter></defs><g><!--MD5=[7fd4401f5c5cb0e3d029c879cad30c04]
class Animal--><rect codeLine="4" fill="#FEFECE" filter="url(#fjjh8si311b4l)" height="86.4141" id="Animal" style="stroke:#A80036;stroke-width:1.5;" width="111" x="84" y="7"/><ellipse cx="116.1" cy="23" fill="#A9DCDF" rx="11" ry="11" style="stroke:#A80036;stroke-width:1.0;"/><path d="M116.2094,18.3438 L115.0531,23.4219 L117.3813,23.4219 L116.2094,18.3438 Z M114.725,16.1094 L117.7094,16.1094 L121.0688,28.5 L118.6156,28.5 L117.85,25.4375 L114.5688,25.4375 L113.8188,28.5 L111.3813,28.5 L114.725,16.1094 Z " fill="#000000"/><text fill="#000000" font-family="sans-serif" font-size="12" font-style="italic" lengthAdjust="spacing" textLength="41" x="133.9" y="27.1543">Animal</text><line style="stroke:#A80036;stroke-width:1.5;" x1="85" x2="194" y1="39" y2="39"/><ellipse cx="95" cy="50" rx="3" ry="3" style="stroke:#038048;stroke-width:1.0;fill:none;"/><text fill="#000000" font-family="sans-serif" font-size="11" lengthAdjust="spacing" textLength="77" x="104" y="53.2104">name : string</text><polygon fill="none" points="95,57.8047,99,61.8047,95,65.8047,91,61.8047" style="stroke:#B38D22;stroke-width:1.0;"/><text fill="#000000" font-family="sans-serif" font-size="11" lengthAdjust="spacing" textLength="77" x="104" y="66.0151">age : number</text><line style="stroke:#A80036;stroke-width:1.5;" x1="85" x2="194" y1="72.6094" y2="72.6094"/><ellipse cx="95" cy="83.6094" fill="#84BE84" rx="3" ry="3" style="stroke:#038048;stroke-width:1.0;"/><text fill="#000000" font-family="sans-serif" font-size="11" font-style="italic" lengthAdjust="spacing" textLength="85" x="104" y="86.8198">speak() : string</text><!--MD5=[454ed48f055567edc734f170f61b4daf]
class Dog--><rect codeLine="9" fill="#FEFECE" filter="url(#fjjh8si311b4l)" height="86.4141" id="Dog" style="stroke:#A80036;stroke-width:1.5;" width="113" x="9" y="153"/><ellipse cx="49.2" cy="169" fill="#ADD1B2" rx="11" ry="11" style="stroke:#A80036;stroke-width:1.0;"/><path d="M52.1688,174.6406 Q51.5906,174.9375 50.95,175.0781 Q50.3094,175.2344 49.6063,175.2344 Q47.1063,175.2344 45.7781,173.5938 Q44.4656,171.9375 44.4656,168.8125 Q44.4656,165.6875 45.7781,164.0313 Q47.1063,162.375 49.6063,162.375 Q50.3094,162.375 50.95,162.5313 Q51.6063,162.6875 52.1688,162.9844 L52.1688,165.7031 Q51.5438,165.125 50.95,164.8594 Q50.3563,164.5781 49.7313,164.5781 Q48.3875,164.5781 47.7,165.6563 Q47.0125,166.7188 47.0125,168.8125 Q47.0125,170.9063 47.7,171.9844 Q48.3875,173.0469 49.7313,173.0469 Q50.3563,173.0469 50.95,172.7813 Q51.5438,172.5 52.1688,171.9219 L52.1688,174.6406 Z " fill="#000000"/><text fill="#000000" font-family="sans-serif" font-size="12" lengthAdjust="spacing" textLength="25" x="68.8" y="173.1543">Dog</text><line style="stroke:#A80036;stroke-width:1.5;" x1="10" x2="121" y1="185" y2="185"/><ellipse cx="20" cy="196" rx="3" ry="3" style="stroke:#038048;stroke-width:1.0;fill:none;"/><text fill="#000000" font-family="sans-serif" font-size="11" lengthAdjust="spacing" textLength="77" x="29" y="199.2104">name : string</text><polygon fill="none" points="20,203.8047,24,207.8047,20,211.8047,16,207.8047" style="stroke:#B38D22;stroke-width:1.0;"/><text fill="#000000" font-family="sans-serif" font-size="11" lengthAdjust="spacing" textLength="77" x="29" y="212.0151">age : number</text><line style="stroke:#A80036;stroke-width:1.5;" x1="10" x2="121" y1="218.6094" y2="218.6094"/><ellipse cx="20" cy="229.6094" fill="#84BE84" rx="3" ry="3" style="stroke:#038048;stroke-width:1.0;"/><text fill="#000000" font-family="sans-serif" font-size="11" lengthAdjust="spacing" textLength="87" x="29" y="232.8198">speak() : string</text><!--MD5=[8d10b9619f233caeee54837354dd5717]
class Cat--><rect codeLine="15" fill="#FEFECE" filter="url(#fjjh8si311b4l)" height="86.4141" id="Cat" style="stroke:#A80036;stroke-width:1.5;" width="113" x="157" y="153"/><ellipse cx="199" cy="169" fill="#ADD1B2" rx="11" ry="11" style="stroke:#A80036;stroke-width:1.0;"/><path d="M201.9688,174.6406 Q201.3906,174.9375 200.75,175.0781 Q200.1094,175.2344 199.4063,175.2344 Q196.9063,175.2344 195.5781,173.5938 Q194.2656,171.9375 194.2656,168.8125 Q194.2656,165.6875 195.5781,164.0313 Q196.9063,162.375 199.4063,162.375 Q200.1094,162.375 200.75,162.5313 Q201.4063,162.6875 201.9688,162.9844 L201.9688,165.7031 Q201.3438,165.125 200.75,164.8594 Q200.1563,164.5781 199.5313,164.5781 Q198.1875,164.5781 197.5,165.6563 Q196.8125,166.7188 196.8125,168.8125 Q196.8125,170.9063 197.5,171.9844 Q198.1875,173.0469 199.5313,173.0469 Q200.1563,173.0469 200.75,172.7813 Q201.3438,172.5 201.9688,171.9219 L201.9688,174.6406 Z " fill="#000000"/><text fill="#000000" font-family="sans-serif" font-size="12" lengthAdjust="spacing" textLength="21" x="219" y="173.1543">Cat</text><line style="stroke:#A80036;stroke-width:1.5;" x1="158" x2="269" y1="185" y2="185"/><ellipse cx="168" cy="196" rx="3" ry="3" style="stroke:#038048;stroke-width:1.0;fill:none;"/><text fill="#000000" font-family="sans-serif" font-size="11" lengthAdjust="spacing" textLength="77" x="177" y="199.2104">name : string</text><polygon fill="none" points="168,203.8047,172,207.8047,168,211.8047,164,207.8047" style="stroke:#B38D22;stroke-width:1.0;"/><text fill="#000000" font-family="sans-serif" font-size="11" lengthAdjust="spacing" textLength="77" x="177" y="212.0151">age : number</text><line style="stroke:#A80036;stroke-width:1.5;" x1="158" x2="269" y1="218.6094" y2="218.6094"/><ellipse cx="168" cy="229.6094" fill="#84BE84" rx="3" ry="3" style="stroke:#038048;stroke-width:1.0;"/><text fill="#000000" font-family="sans-serif" font-size="11" lengthAdjust="spacing" textLength="87" x="177" y="232.8198">speak() : string</text><!--MD5=[5037e5108ae860e34ac250b7d2b84c09]
reverse link Animal to Dog--><path codeLine="14" d="M108.71,110.92 C101.5,124.94 93.97,139.59 87.26,152.66 " fill="none" id="Animal-backto-Dog" style="stroke:#A80036;stroke-width:1.0;"/><polygon fill="none" points="102.53,107.63,117.9,93.04,114.98,114.03,102.53,107.63" style="stroke:#A80036;stroke-width:1.0;"/><!--MD5=[29afdbb58cca2b953b6b88505d3bed3f]
reverse link Animal to Cat--><path codeLine="20" d="M170.29,110.92 C177.5,124.94 185.03,139.59 191.74,152.66 " fill="none" id="Animal-backto-Cat" style="stroke:#A80036;stroke-width:1.0;"/><polygon fill="none" points="164.02,114.03,161.1,93.04,176.47,107.63,164.02,114.03" style="stroke:#A80036;stroke-width:1.0;"/><!--MD5=[509c537fa250c2c354b56ce433b715e1]
@startuml
skinparam BackgroundColor transparent
hide empty methods
hide empty fields
abstract class "Animal" {
    +name : string
    #age : number
    {abstract} +speak() : string
}
class "Dog" {
    +name : string
    #age : number
    +speak() : string
}
"Animal" <|- - "Dog"
class "Cat" {
    +name : string
    #age : number
    +speak() : string
}
"Animal" <|- - "Cat"
@enduml

PlantUML version 1.2021.14(Fri Nov 12 23:46:50 ICT 2021)
(GPL source distribution)
Java Runtime: OpenJDK Runtime Environment
JVM: OpenJDK 64-Bit Server VM
Default Encoding: UTF-8
Language: en
Country: US
--></g></svg>