<?xml version="1.0" encoding="UTF-8" standalone="no"?><svg xmlns="http://www.w3.org/2000/svg" xmlns:xlink="http://www.w3.org/1999/xlink" contentScriptType="application/ecmascript" contentStyleType="text/css" height="253px" preserveAspectRatio="none" style="width:136px;height:253px;background:#00000000;" version="1.1" viewBox="0 0 136 253" width="136px" zoomAndPan="magnify"><defs><filter height="300%" id="f1fw4x5zm4vyng" width="300%" x="-1" y="-1"><feGaussianBlur result="blurOut" stdDeviation="2.0"/><feColorMatrix in="blurOut" result="blurOut2" type="matrix" values="0 0 0 0 0 0 0 0 0 0 0 0 0 0 0 0 0 0 .4 0"/><feOffset dx="4.0" dy="4.0" in="blurOut2" result="blurOut3"/><feBlend in="SourceGraphic" in2="blurOut3" mode="normal"/></filter></defs><g><!--MD5=[8d10b9619f233caeee54837354dd5717]
class Cat--><rect codeLine="4" fill="#FEFECE" filter="url(#f1fw4x5zm4vyng)" height="86.4141" id="Cat" style="stroke:#A80036;stroke-width:1.5;" width="113" x="9" y="153"/><ellipse cx="51" cy="169" fill="#ADD1B2" rx="11" ry="11" style="stroke:#A80036;stroke-width:1.0;"/><path d="M53.9688,174.6406 Q53.3906,174.9375 52.75,175.0781 Q52.1094,175.2344 51.4063,175.2344 Q48.9063,175.2344 47.5781,173.5938 Q46.2656,171.9375 46.2656,168.8125 Q46.2656,165.6875 47.5781,164.0313 Q48.9063,162.375 51.4063,162.375 Q52.1094,162.375 52.75,162.5313 Q53.4063,162.6875 53.9688,162.9844 L53.9688,165.7031 Q53.3438,165.125 52.75,164.8594 Q52.1563,164.5781 51.5313,164.5781 Q50.1875,164.5781 49.5,165.6563 Q48.8125,166.7188 48.8125,168.8125 Q48.8125,170.9063 49.5,171.9844 Q50.1875,173.0469 51.5313,173.0469 Q52.1563,173.0469 52.75,172.7813 Q53.3438,172.5 53.9688,171.9219 L53.9688,174.6406 Z " fill="#000000"/><text fill="#000000" font-family="sans-serif" font-size="12" lengthAdjust="spacing" textLength="21" x="71" y="173.1543">Cat</text><line style="stroke:#A80036;stroke-width:1.5;" x1="10" x2="121" y1="185" y2="185"/><ellipse cx="20" cy="196" rx="3" ry="3" style="stroke:#038048;stroke-width:1.0;fill:none;"/><text fill="#000000" font-family="sans-serif" font-size="11" lengthAdjust="spacing" textLength="77" x="29" y="199.2104">name : string</text><polygon fill="none" points="20,203.8047,24,207.8047,20,211.8047,16,207.8047" style="stroke:#B38D22;stroke-width:1.0;"/><text fill="#000000" font-family="sans-serif" font-size="11" lengthAdjust="spacing" textLength="77" x="29" y="212.0151">age : number</text><line style="stroke:#A80036;stroke-width:1.5;" x1="10" x2="121" y1="218.6094" y2="218.6094"/><ellipse cx="20" cy="229.6094" fill="#84BE84" rx="3" ry="3" style="stroke:#038048;stroke-width:1.0;"/><text fill="#000000" font-family="sans-serif" font-size="11" lengthAdjust="spacing" textLength="87" x="29" y="232.8198">speak() : string</text><!--MD5=[7fd4401f5c5cb0e3d029c879cad30c04]
class Animal--><rect codeLine="9" fill="#FEFECE" filter="url(#f1fw4x5zm4vyng)" height="86.4141" id="Animal" style="stroke:#A80036;stroke-width:1.5;" width="111" x="10" y="7"/><ellipse cx="42.1" cy="23" fill="#A9DCDF" rx="11" ry="11" style="stroke:#A80036;stroke-width:1.0;"/><path d="M42.2094,18.3438 L41.0531,23.4219 L43.3813,23.4219 L42.2094,18.3438 Z M40.725,16.1094 L43.7094,16.1094 L47.0688,28.5 L44.6156,28.5 L43.85,25.4375 L40.5688,25.4375 L39.8188,28.5 L37.3813,28.5 L40.725,16.1094 Z " fill="#000000"/><text fill="#000000" font-family="sans-serif" font-size="12" font-style="italic" lengthAdjust="spacing" textLength="41" x="59.9" y="27.1543">Animal</text><line style="stroke:#A80036;stroke-width:1.5;" x1="11" x2="120" y1="39" y2="39"/><ellipse cx="21" cy="50" rx="3" ry="3" style="stroke:#038048;stroke-width:1.0;fill:none;"/><text fill="#000000" font-family="sans-serif" font-size="11" lengthAdjust="spacing" textLength="77" x="30" y="53.2104">name : string</text><polygon fill="none" points="21,57.8047,25,61.8047,21,65.8047,17,61.8047" style="stroke:#B38D22;stroke-width:1.0;"/><text fill="#000000" font-family="sans-serif" font-size="11" lengthAdjust="spacing" textLength="77" x="30" y="66.0151">age : number</text><line style="stroke:#A80036;stroke-width:1.5;" x1="11" x2="120" y1="72.6094" y2="72.6094"/><ellipse cx="21" cy="83.6094" fill="#84BE84" rx="3" ry="3" style="stroke:#038048;stroke-width:1.0;"/><text fill="#000000" font-family="sans-serif" font-size="11" font-style="italic" lengthAdjust="spacing" textLength="85" x="30" y="86.8198">speak() : string</text><!--MD5=[29afdbb58cca2b953b6b88505d3bed3f]
reverse link Animal to Cat--><path codeLine="14" d="M65.5,113.29 C65.5,126.58 65.5,140.33 65.5,152.66 " fill="none" id="Animal-backto-Cat" style="stroke:#A80036;stroke-width:1.0;"/><polygon fill="none" points="58.5,113.04,65.5,93.04,72.5,113.04,58.5,113.04" style="stroke:#A80036;stroke-width:1.0;"/><!--MD5=[005e7fbc9937cbd387e1b3d12ff8e838]
@startuml
skinparam BackgroundColor transparent
hide empty methods
hide empty fields
class "Cat" {
    +name : string
    #age : number
    +speak() : string
}
abstract class "Animal" {
    +name : string
    #age : number
    {abstract} +speak() : string
}
"Animal" <|- - "Cat"
@enduml

PlantUML version 1.2021.14(Fri Nov 12 23:46:50 ICT 2021)
(GPL source distribution)
Java Runtime: OpenJDK Runtime Environment
JVM: OpenJDK 64-Bit Server VM
Default Encoding: UTF-8
Language: en
Country: US
--></g></svg>